<?xml version="1.0" encoding="utf-8"?>
<!-- Generator: Adobe Illustrator 27.1.1, SVG Export Plug-In . SVG Version: 6.00 Build 0)  -->
<svg version="1.1" id="Livello_1" xmlns="http://www.w3.org/2000/svg"
    xmlns:xlink="http://www.w3.org/1999/xlink" x="0px" y="0px"
    viewBox="0 0 1133.9 1133.9" style="enable-background:new 0 0 1133.9 1133.9;"
    xml:space="preserve">
<style type="text/css">
	.st0{fill-rule:evenodd;clip-rule:evenodd;fill:#00AEFF;}
</style>
<path class="st0" d="M1004.5,591.2c29,16,29,41.6,0,58L619.8,859.2c-29,15.7-76.8,15.7-105.8,0L129.3,649.2c-29-16.4-29-42,0-58
	l73.7-40.3c-9.2,11.9-5.1,26.3,12.6,36.2l308.9,168.6c23.2,12.6,61.4,12.6,84.7,0l308.9-168.6c17.7-9.9,21.8-24.2,12.6-36.2
	L1004.5,591.2z"/>
<path class="st0" d="M609.3,265.1l308.9,168.6c23.2,13,23.2,33.5,0,46.4L609.3,648.8c-23.2,12.6-61.4,12.6-84.7,0L215.7,480.1
	c-23.2-13-23.2-33.5,0-46.4l308.9-168.6C547.8,252.5,586,252.5,609.3,265.1z"/>
</svg>
